<svg width="243" height="185" viewBox="0 0 243 185" fill="none" xmlns="http://www.w3.org/2000/svg">
    <path
      d="M149.958 0.727173C98.7921 0.727173 57.3109 31.7035 57.3109 69.9183C57.3109 70.3992 57.317 70.8801 57.3293 71.361C57.6622 83.4457 51.9045 94.8707 41.7639 101.449C28.2142 110.248 19.8735 122.24 19.8735 135.459C19.8735 162.465 54.6848 184.353 97.627 184.353C132.79 184.353 162.497 169.673 172.107 149.529C176.003 141.36 182.827 135.015 191.304 131.852C221.719 120.508 242.605 97.0349 242.605 69.9183C242.605 31.7035 201.124 0.727173 149.958 0.727173Z"
      fill="#E5ECF8"
    />
    <path
      d="M189.2 111.651H125.407C120.179 111.651 115.937 107.409 115.937 102.181V13.598C115.937 8.36978 120.179 4.12769 125.407 4.12769H189.2C194.429 4.12769 198.671 8.36978 198.671 13.598V102.172C198.679 107.409 194.437 111.651 189.2 111.651Z"
      fill="url(#paint0_linear)"
      fillOpacity="0.5"
    />
    <path
      d="M185.91 115.051H122.117C116.889 115.051 112.647 110.809 112.647 105.581V16.9985C112.647 11.7702 116.889 7.52814 122.117 7.52814H185.91C191.139 7.52814 195.381 11.7702 195.381 16.9985V105.572C195.389 110.809 191.147 115.051 185.91 115.051Z"
      fill="url(#paint1_linear)"
    />
    <path
      d="M154.014 84.2431C166.691 84.2431 176.967 73.9666 176.967 61.2899C176.967 48.6132 166.691 38.3367 154.014 38.3367C141.337 38.3367 131.061 48.6132 131.061 61.2899C131.061 73.9666 141.337 84.2431 154.014 84.2431Z"
      fill="#F4F6F9"
    />
    <path d="M147.137 57.7533V67.6147" stroke="#002A61" strokeWidth="5" strokeMiterlimit="10" strokeLinecap="round" />
    <path d="M160.9 57.7533V67.6147" stroke="#002A61" strokeWidth="5" strokeMiterlimit="10" strokeLinecap="round" />
    <path
      d="M58.6986 59.4025C66.0266 59.4025 71.9775 65.3448 71.9775 72.6813C71.9775 80.0094 66.0351 85.9602 58.6986 85.9602H34.2066C18.3519 85.9602 5.50659 98.814 5.50659 114.66C5.50659 130.515 18.3604 143.36 34.2066 143.36H109.706"
      stroke="#36679A"
      strokeWidth="10"
      strokeMiterlimit="10"
      strokeLinecap="round"
    />
    <path
      d="M61.1043 50.4592C58.0439 54.8798 57.2788 63.636 57.2788 67.4616L47.9275 56.8351L61.1043 50.4592Z"
      fill="#F4F6F9"
    />
    <path
      d="M146.983 128.696H117.748C111.448 128.696 105.855 132.717 103.857 138.693C100.677 148.189 107.742 158.008 117.748 158.008H142.486C145.224 158.008 147.613 156.154 148.301 153.511L152.781 136.194C153.767 132.402 150.903 128.696 146.983 128.696Z"
      fill="#36679A"
    />
    <path d="M115.937 152.049H131.239" stroke="#F3FCFF" strokeWidth="5" strokeMiterlimit="10" strokeLinecap="round" />
    <path
      d="M143.141 152.049L147.391 134.196"
      stroke="#002A61"
      strokeWidth="10"
      strokeMiterlimit="10"
      strokeLinecap="round"
    />
    <path d="M147.392 137.596H163.544" stroke="#FFBE12" strokeWidth="5" strokeMiterlimit="10" strokeLinecap="round" />
    <path d="M144.841 149.498H161.844" stroke="#FFBE12" strokeWidth="5" strokeMiterlimit="10" strokeLinecap="round" />
    <path
      d="M123.928 16.8795H182.935"
      stroke="white"
      strokeOpacity="0.5"
      strokeWidth="5"
      strokeMiterlimit="10"
      strokeLinecap="round"
    />
    <path
      d="M163.672 121.198L171.68 113.19"
      stroke="#FFD348"
      strokeWidth="5"
      strokeMiterlimit="10"
      strokeLinecap="round"
    />
    <path
      d="M169.129 126.774L179.671 122.617"
      stroke="#FFD348"
      strokeWidth="5"
      strokeMiterlimit="10"
      strokeLinecap="round"
    />
    <path
      d="M107.496 121.198L99.4875 113.19"
      stroke="#FFD348"
      strokeWidth="5"
      strokeMiterlimit="10"
      strokeLinecap="round"
    />
    <path
      d="M102.038 126.774L91.5049 122.617"
      stroke="#FFD348"
      strokeWidth="5"
      strokeMiterlimit="10"
      strokeLinecap="round"
    />
    <path
      d="M43.677 90.7391C46.4384 90.7391 48.677 88.5006 48.677 85.7391C48.677 82.9777 46.4384 80.7391 43.677 80.7391V90.7391ZM43.677 148.547C46.4384 148.547 48.677 146.309 48.677 143.547C48.677 140.786 46.4384 138.547 43.677 138.547V148.547ZM43.677 80.7391H34.7508V90.7391H43.677V80.7391ZM34.7507 148.547H43.677V138.547H34.7507V148.547ZM0.84668 114.643C0.84668 133.368 16.026 148.547 34.7507 148.547V138.547C21.5489 138.547 10.8467 127.845 10.8467 114.643H0.84668ZM34.7508 80.7391C16.0261 80.7391 0.84668 95.9185 0.84668 114.643H10.8467C10.8467 101.441 21.5489 90.7391 34.7508 90.7391V80.7391Z"
      fill="#338CBF"
    />
    <defs>
      <linearGradient
        id="paint0_linear"
        x1="157.482"
        y1="-29.452"
        x2="154.617"
        y2="259.589"
        gradientUnits="userSpaceOnUse"
      >
        <stop offset="0.403482" stopColor="#B5C8E9" />
        <stop offset="1" stopColor="white" />
      </linearGradient>
      <linearGradient
        id="paint1_linear"
        x1="154.192"
        y1="-26.0516"
        x2="148.241"
        y2="224.309"
        gradientUnits="userSpaceOnUse"
      >
        <stop stopColor="#B5C8E9" />
        <stop offset="1" stopColor="white" />
      </linearGradient>
    </defs>
  </svg>